# xmcd
#
# Track frame offsets:
#	150
#	16096
#	34321
#	50679
#	66126
#	82731
#	97243
#	112296
#	128220
#	142951
#	159525
#	178872
#	195993
#	216916
#	232716
#
# Disc length: 3310 seconds
# Revision: 0
# Processed by: cddbd v1.5.2PL0 Copyright (c) Steve Scherf et al.
# Submitted via: dBpowerAMP V12.0
#
DISCID=cd0cec0f
DTITLE=Various Artist - Goon Affliliated
DYEAR=2010
DGENRE=Hip Hop
TTITLE0=Plies - Go Live
TTITLE1=Plies - Rob Myself
TTITLE2=Plies - Awesome
TTITLE3=Plies - Bruh Bruh
TTITLE4=Plies - Get My Niggas Out
TTITLE5=Plies - Flaw
TTITLE6=Plies - Becky
TTITLE7=Plies featuring Trey Songz - Kitty Kitty
TTITLE8=Plies - Whatever I Say
TTITLE9=Plies - Goonette
TTITLE10=Plies - Good Dick
TTITLE11=Plies - Model
TTITLE12=Plies featuring Young Jeezy and Fabolous - Look Like
TTITLE13=Plies - All I Know
TTITLE14=Plies - She Got It Made
EXTD=
EXTT0=
EXTT1=
EXTT2=
EXTT3=
EXTT4=
EXTT5=
EXTT6=
EXTT7=
EXTT8=
EXTT9=
EXTT10=
EXTT11=
EXTT12=
EXTT13=
EXTT14=
PLAYORDER=
